<svg width="60" height="58" viewBox="0 0 60 58" fill="none" xmlns="http://www.w3.org/2000/svg">
<path d="M35.6485 12.6875H23.6199C15.1389 12.6875 8.28391 19.4445 8.28391 27.7636V30.1612H51.0029V27.7636C50.9845 19.4445 44.111 12.6875 35.6485 12.6875Z" fill="#D99A64"/>
<path d="M35.6485 12.6875H23.6199C15.1389 12.6875 8.28391 19.4445 8.28391 27.7636V30.1612H51.0029V27.7636C50.9845 19.4445 44.111 12.6875 35.6485 12.6875Z" fill="url(#paint0_radial_2008_257)"/>
<g filter="url(#filter0_f_2008_257)">
<path d="M29.204 24.4166C29.9897 24.4166 30.6267 23.7904 30.6267 23.018C30.6267 22.2455 29.9897 21.6194 29.204 21.6194C28.4182 21.6194 27.7812 22.2455 27.7812 23.018C27.7812 23.7904 28.4182 24.4166 29.204 24.4166Z" fill="#E5A671"/>
</g>
<path d="M29.6251 24.0399C30.4108 24.0399 31.0478 23.4137 31.0478 22.6413C31.0478 21.8689 30.4108 21.2427 29.6251 21.2427C28.8393 21.2427 28.2023 21.8689 28.2023 22.6413C28.2023 23.4137 28.8393 24.0399 29.6251 24.0399Z" fill="url(#paint1_radial_2008_257)"/>
<g filter="url(#filter1_f_2008_257)">
<path d="M19.2431 23.0179C20.1022 23.0179 20.7987 22.3284 20.7987 21.4777C20.7987 20.6271 20.1022 19.9375 19.2431 19.9375C18.3839 19.9375 17.6874 20.6271 17.6874 21.4777C17.6874 22.3284 18.3839 23.0179 19.2431 23.0179Z" fill="#DE9B64"/>
</g>
<path d="M20.1833 22.4415C20.969 22.4415 21.606 21.8153 21.606 21.0429C21.606 20.2704 20.969 19.6442 20.1833 19.6442C19.3975 19.6442 18.7606 20.2704 18.7606 21.0429C18.7606 21.8153 19.3975 22.4415 20.1833 22.4415Z" fill="url(#paint2_radial_2008_257)"/>
<g filter="url(#filter2_f_2008_257)">
<path d="M38.6451 22.6407C39.4309 22.6407 40.0678 22.0145 40.0678 21.2421C40.0678 20.4697 39.4309 19.8435 38.6451 19.8435C37.8593 19.8435 37.2224 20.4697 37.2224 21.2421C37.2224 22.0145 37.8593 22.6407 38.6451 22.6407Z" fill="#F4B982"/>
</g>
<path d="M39.0669 22.4415C39.8526 22.4415 40.4896 21.8153 40.4896 21.0429C40.4896 20.2704 39.8526 19.6442 39.0669 19.6442C38.2811 19.6442 37.6441 20.2704 37.6441 21.0429C37.6441 21.8153 38.2811 22.4415 39.0669 22.4415Z" fill="url(#paint3_radial_2008_257)"/>
<g filter="url(#filter3_f_2008_257)">
<path d="M24.3818 18.8013C25.241 18.8013 25.9374 18.1117 25.9374 17.2611C25.9374 16.4105 25.241 15.7209 24.3818 15.7209C23.5227 15.7209 22.8262 16.4105 22.8262 17.2611C22.8262 18.1117 23.5227 18.8013 24.3818 18.8013Z" fill="#DE9D64"/>
</g>
<path d="M25.135 18.5181C25.9208 18.5181 26.5577 17.8919 26.5577 17.1195C26.5577 16.3471 25.9208 15.7209 25.135 15.7209C24.3492 15.7209 23.7123 16.3471 23.7123 17.1195C23.7123 17.8919 24.3492 18.5181 25.135 18.5181Z" fill="url(#paint4_radial_2008_257)"/>
<g filter="url(#filter4_f_2008_257)">
<path d="M33.4235 18.8013C34.2093 18.8013 34.8463 18.1751 34.8463 17.4027C34.8463 16.6303 34.2093 16.0041 33.4235 16.0041C32.6378 16.0041 32.0008 16.6303 32.0008 17.4027C32.0008 18.1751 32.6378 18.8013 33.4235 18.8013Z" fill="#E6A769"/>
</g>
<path d="M34.115 18.5181C34.9007 18.5181 35.5377 17.8919 35.5377 17.1195C35.5377 16.3471 34.9007 15.7209 34.115 15.7209C33.3292 15.7209 32.6922 16.3471 32.6922 17.1195C32.6922 17.8919 33.3292 18.5181 34.115 18.5181Z" fill="url(#paint5_radial_2008_257)"/>
<path d="M50.7075 29.7434H8.54274V35.5559H50.7075V29.7434Z" fill="url(#paint6_linear_2008_257)"/>
<path d="M50.7075 29.7434H8.54274V35.5559H50.7075V29.7434Z" fill="url(#paint7_linear_2008_257)"/>
<path d="M51.1508 45.5642H8.09919C5.73412 45.5642 3.8125 43.6751 3.8125 41.3501C3.8125 39.0252 5.73412 37.1361 8.09919 37.1361H51.1508C53.5159 37.1361 55.4375 39.0252 55.4375 41.3501C55.4375 43.6751 53.5159 45.5642 51.1508 45.5642Z" fill="url(#paint8_linear_2008_257)"/>
<path d="M51.1508 45.5642H8.09919C5.73412 45.5642 3.8125 43.6751 3.8125 41.3501C3.8125 39.0252 5.73412 37.1361 8.09919 37.1361H51.1508C53.5159 37.1361 55.4375 39.0252 55.4375 41.3501C55.4375 43.6751 53.5159 45.5642 51.1508 45.5642Z" fill="url(#paint9_radial_2008_257)"/>
<path d="M51.1508 45.5642H8.09919C5.73412 45.5642 3.8125 43.6751 3.8125 41.3501C3.8125 39.0252 5.73412 37.1361 8.09919 37.1361H51.1508C53.5159 37.1361 55.4375 39.0252 55.4375 41.3501C55.4375 43.6751 53.5159 45.5642 51.1508 45.5642Z" fill="url(#paint10_radial_2008_257)"/>
<g filter="url(#filter5_f_2008_257)">
<path fill-rule="evenodd" clip-rule="evenodd" d="M17.9474 27.9328C20.8595 27.9328 23.7335 29.1011 25.0332 29.7834C26.3328 30.4657 27.3553 31.0025 29.6434 31.0025C33.0663 31.0025 43.3024 27.9328 47.4863 30.1328C48.784 30.8152 47.2272 31.0025 49.5029 31.0025L50.0791 33.5879C48.7539 33.5879 47.5704 33.2323 45.9663 32.3889L45.9298 32.3697C44.6321 31.6874 43.6151 31.1526 41.3394 31.1526C39.0651 31.1526 38.0479 31.6867 36.7478 32.3692L36.7088 32.3897C35.1009 33.2337 33.1925 34.2223 29.6434 34.2223C26.0944 34.2223 24.186 33.2337 22.5781 32.3897L22.5391 32.3692C21.2389 31.6867 20.2218 31.1526 17.9474 31.1526C15.6699 31.1526 14.6479 31.6883 13.3437 32.372L13.3084 32.3905C11.701 33.2329 11.3604 33.5879 9.45898 33.5879C9.45898 33.5879 9.55734 30.4634 10.8552 29.7832C12.4679 28.9378 14.3807 27.9328 17.9474 27.9328Z" fill="url(#paint11_linear_2008_257)"/>
<path fill-rule="evenodd" clip-rule="evenodd" d="M17.9474 27.9328C20.8595 27.9328 23.7335 29.1011 25.0332 29.7834C26.3328 30.4657 27.3553 31.0025 29.6434 31.0025C33.0663 31.0025 43.3024 27.9328 47.4863 30.1328C48.784 30.8152 47.2272 31.0025 49.5029 31.0025L50.0791 33.5879C48.7539 33.5879 47.5704 33.2323 45.9663 32.3889L45.9298 32.3697C44.6321 31.6874 43.6151 31.1526 41.3394 31.1526C39.0651 31.1526 38.0479 31.6867 36.7478 32.3692L36.7088 32.3897C35.1009 33.2337 33.1925 34.2223 29.6434 34.2223C26.0944 34.2223 24.186 33.2337 22.5781 32.3897L22.5391 32.3692C21.2389 31.6867 20.2218 31.1526 17.9474 31.1526C15.6699 31.1526 14.6479 31.6883 13.3437 32.372L13.3084 32.3905C11.701 33.2329 11.3604 33.5879 9.45898 33.5879C9.45898 33.5879 9.55734 30.4634 10.8552 29.7832C12.4679 28.9378 14.3807 27.9328 17.9474 27.9328Z" fill="#E0215C"/>
</g>
<path fill-rule="evenodd" clip-rule="evenodd" d="M10.8906 27.5051C12.498 26.6627 14.4068 25.6732 17.9476 25.6732C21.4893 25.6732 23.394 26.6634 24.9991 27.5059L25.0333 27.5239C26.333 28.2062 27.3554 28.743 29.6436 28.743C31.9317 28.743 32.9541 28.2062 34.2538 27.5239L34.288 27.5059C35.8931 26.6634 37.7978 25.6732 41.3396 25.6732C44.8813 25.6732 46.7861 26.6633 48.3902 27.5067L48.4268 27.5259C49.7244 28.2082 50.7414 28.743 53.0171 28.743C54.4363 28.743 55.5869 29.874 55.5869 31.2692C55.5869 32.6644 54.4363 33.7955 53.0171 33.7955C49.4753 33.7955 47.5705 32.8054 45.9664 31.962L45.9299 31.9429C44.6322 31.2605 43.6153 30.7258 41.3396 30.7258C39.0652 30.7258 38.048 31.2598 36.7479 31.9424L36.7089 31.9628C35.101 32.8069 33.1926 33.7955 29.6436 33.7955C26.0945 33.7955 24.1861 32.8069 22.5782 31.9628L22.5392 31.9424C21.2391 31.2598 20.2219 30.7258 17.9476 30.7258C15.6701 30.7258 14.648 31.2615 13.3438 31.9451L13.3085 31.9636C11.7011 32.806 9.79232 33.7955 6.25155 33.7955C4.83228 33.7955 3.68173 32.6644 3.68173 31.2692C3.68173 29.874 4.83228 28.743 6.25155 28.743C8.52903 28.743 9.55107 28.2072 10.8553 27.5236C10.867 27.5175 10.8788 27.5113 10.8906 27.5051Z" fill="url(#paint12_linear_2008_257)"/>
<path fill-rule="evenodd" clip-rule="evenodd" d="M10.8906 27.5051C12.498 26.6627 14.4068 25.6732 17.9476 25.6732C21.4893 25.6732 23.394 26.6634 24.9991 27.5059L25.0333 27.5239C26.333 28.2062 27.3554 28.743 29.6436 28.743C31.9317 28.743 32.9541 28.2062 34.2538 27.5239L34.288 27.5059C35.8931 26.6634 37.7978 25.6732 41.3396 25.6732C44.8813 25.6732 46.7861 26.6633 48.3902 27.5067L48.4268 27.5259C49.7244 28.2082 50.7414 28.743 53.0171 28.743C54.4363 28.743 55.5869 29.874 55.5869 31.2692C55.5869 32.6644 54.4363 33.7955 53.0171 33.7955C49.4753 33.7955 47.5705 32.8054 45.9664 31.962L45.9299 31.9429C44.6322 31.2605 43.6153 30.7258 41.3396 30.7258C39.0652 30.7258 38.048 31.2598 36.7479 31.9424L36.7089 31.9628C35.101 32.8069 33.1926 33.7955 29.6436 33.7955C26.0945 33.7955 24.1861 32.8069 22.5782 31.9628L22.5392 31.9424C21.2391 31.2598 20.2219 30.7258 17.9476 30.7258C15.6701 30.7258 14.648 31.2615 13.3438 31.9451L13.3085 31.9636C11.7011 32.806 9.79232 33.7955 6.25155 33.7955C4.83228 33.7955 3.68173 32.6644 3.68173 31.2692C3.68173 29.874 4.83228 28.743 6.25155 28.743C8.52903 28.743 9.55107 28.2072 10.8553 27.5236C10.867 27.5175 10.8788 27.5113 10.8906 27.5051Z" fill="url(#paint13_radial_2008_257)"/>
<path d="M45.9404 53.8288H13.3098C10.6861 53.8288 8.56119 51.7399 8.56119 49.1606V45.5642H50.7259V49.1425C50.7074 51.7399 48.5641 53.8288 45.9404 53.8288Z" fill="url(#paint14_linear_2008_257)"/>
<path d="M45.9404 53.8288H13.3098C10.6861 53.8288 8.56119 51.7399 8.56119 49.1606V45.5642H50.7259V49.1425C50.7074 51.7399 48.5641 53.8288 45.9404 53.8288Z" fill="url(#paint15_radial_2008_257)"/>
<path d="M50.7075 35.5558H8.54274V37.1361L21.9756 40.0968C27.0014 41.2048 32.2304 41.2048 37.2561 40.0968L50.689 37.1361V35.5558H50.7075Z" fill="url(#paint16_linear_2008_257)"/>
<g filter="url(#filter6_f_2008_257)">
<path d="M49.8486 36.3066C45.7578 37.7227 38.7977 39.0594 37.6914 39.1953" stroke="url(#paint17_linear_2008_257)" stroke-width="0.25"/>
</g>
<g filter="url(#filter7_f_2008_257)">
<path d="M9.11328 36.3066C13.2041 37.7227 20.1643 39.0594 21.2705 39.1953" stroke="url(#paint18_linear_2008_257)" stroke-width="0.25"/>
</g>
<g filter="url(#filter8_f_2008_257)">
<path d="M22.3652 29C23.748 29.8685 27.6199 32.1152 29.7402 32.1152C32.3906 32.1152 40.8228 25.2644 45.8154 27.8672C49.6182 29.8496 52.8639 29.7363 52.5566 29.8496" stroke="url(#paint19_radial_2008_257)" stroke-width="0.75"/>
</g>
<g filter="url(#filter9_f_2008_257)">
<path d="M14.5293 29.5948C11.7988 30.9978 7.96094 32.8516 5.71387 33.3614L5.08008 29.5948C5.08008 29.5948 5.99524 30.1805 9.57427 28.5469C14.4141 26.338 17.0357 25.375 19.8589 26.2813L22.5957 31.6055C20.848 30.4161 15.7969 28.9434 14.5293 29.5948Z" fill="url(#paint20_linear_2008_257)"/>
</g>
<defs>
<filter id="filter0_f_2008_257" x="27.2812" y="21.1194" width="3.84547" height="3.79724" filterUnits="userSpaceOnUse" color-interpolation-filters="sRGB">
<feFlood flood-opacity="0" result="BackgroundImageFix"/>
<feBlend mode="normal" in="SourceGraphic" in2="BackgroundImageFix" result="shape"/>
<feGaussianBlur stdDeviation="0.25" result="effect1_foregroundBlur_2008_257"/>
</filter>
<filter id="filter1_f_2008_257" x="17.1874" y="19.4375" width="4.11127" height="4.08045" filterUnits="userSpaceOnUse" color-interpolation-filters="sRGB">
<feFlood flood-opacity="0" result="BackgroundImageFix"/>
<feBlend mode="normal" in="SourceGraphic" in2="BackgroundImageFix" result="shape"/>
<feGaussianBlur stdDeviation="0.25" result="effect1_foregroundBlur_2008_257"/>
</filter>
<filter id="filter2_f_2008_257" x="36.7224" y="19.3435" width="3.84547" height="3.79724" filterUnits="userSpaceOnUse" color-interpolation-filters="sRGB">
<feFlood flood-opacity="0" result="BackgroundImageFix"/>
<feBlend mode="normal" in="SourceGraphic" in2="BackgroundImageFix" result="shape"/>
<feGaussianBlur stdDeviation="0.25" result="effect1_foregroundBlur_2008_257"/>
</filter>
<filter id="filter3_f_2008_257" x="22.3262" y="15.2209" width="4.11127" height="4.08045" filterUnits="userSpaceOnUse" color-interpolation-filters="sRGB">
<feFlood flood-opacity="0" result="BackgroundImageFix"/>
<feBlend mode="normal" in="SourceGraphic" in2="BackgroundImageFix" result="shape"/>
<feGaussianBlur stdDeviation="0.25" result="effect1_foregroundBlur_2008_257"/>
</filter>
<filter id="filter4_f_2008_257" x="31.5008" y="15.5041" width="3.84547" height="3.79725" filterUnits="userSpaceOnUse" color-interpolation-filters="sRGB">
<feFlood flood-opacity="0" result="BackgroundImageFix"/>
<feBlend mode="normal" in="SourceGraphic" in2="BackgroundImageFix" result="shape"/>
<feGaussianBlur stdDeviation="0.25" result="effect1_foregroundBlur_2008_257"/>
</filter>
<filter id="filter5_f_2008_257" x="8.95898" y="27.4328" width="41.6201" height="7.28954" filterUnits="userSpaceOnUse" color-interpolation-filters="sRGB">
<feFlood flood-opacity="0" result="BackgroundImageFix"/>
<feBlend mode="normal" in="SourceGraphic" in2="BackgroundImageFix" result="shape"/>
<feGaussianBlur stdDeviation="0.25" result="effect1_foregroundBlur_2008_257"/>
</filter>
<filter id="filter6_f_2008_257" x="37.4262" y="35.9385" width="12.7134" height="3.63086" filterUnits="userSpaceOnUse" color-interpolation-filters="sRGB">
<feFlood flood-opacity="0" result="BackgroundImageFix"/>
<feBlend mode="normal" in="SourceGraphic" in2="BackgroundImageFix" result="shape"/>
<feGaussianBlur stdDeviation="0.125" result="effect1_foregroundBlur_2008_257"/>
</filter>
<filter id="filter7_f_2008_257" x="8.82239" y="35.9385" width="12.7134" height="3.63086" filterUnits="userSpaceOnUse" color-interpolation-filters="sRGB">
<feFlood flood-opacity="0" result="BackgroundImageFix"/>
<feBlend mode="normal" in="SourceGraphic" in2="BackgroundImageFix" result="shape"/>
<feGaussianBlur stdDeviation="0.125" result="effect1_foregroundBlur_2008_257"/>
</filter>
<filter id="filter8_f_2008_257" x="21.6658" y="26.4021" width="31.7863" height="6.58807" filterUnits="userSpaceOnUse" color-interpolation-filters="sRGB">
<feFlood flood-opacity="0" result="BackgroundImageFix"/>
<feBlend mode="normal" in="SourceGraphic" in2="BackgroundImageFix" result="shape"/>
<feGaussianBlur stdDeviation="0.25" result="effect1_foregroundBlur_2008_257"/>
</filter>
<filter id="filter9_f_2008_257" x="4.58008" y="25.4423" width="18.5156" height="8.41909" filterUnits="userSpaceOnUse" color-interpolation-filters="sRGB">
<feFlood flood-opacity="0" result="BackgroundImageFix"/>
<feBlend mode="normal" in="SourceGraphic" in2="BackgroundImageFix" result="shape"/>
<feGaussianBlur stdDeviation="0.25" result="effect1_foregroundBlur_2008_257"/>
</filter>
<radialGradient id="paint0_radial_2008_257" cx="0" cy="0" r="1" gradientUnits="userSpaceOnUse" gradientTransform="translate(45.412 20.5039) rotate(154.715) scale(29.4396 28.2162)">
<stop offset="0.1309" stop-color="#FFD39B"/>
<stop offset="1" stop-color="#FFD39A" stop-opacity="0"/>
</radialGradient>
<radialGradient id="paint1_radial_2008_257" cx="0" cy="0" r="1" gradientUnits="userSpaceOnUse" gradientTransform="translate(30.4275 21.8343) rotate(124.701) scale(3.90856 3.93264)">
<stop offset="0.182479" stop-color="#F6E8D9"/>
<stop offset="0.607105" stop-color="#E2CFC1"/>
</radialGradient>
<radialGradient id="paint2_radial_2008_257" cx="0" cy="0" r="1" gradientUnits="userSpaceOnUse" gradientTransform="translate(20.9857 20.2359) rotate(124.701) scale(3.90856 3.93264)">
<stop offset="0.182479" stop-color="#F6E8D9"/>
<stop offset="0.607105" stop-color="#E2CFC1"/>
</radialGradient>
<radialGradient id="paint3_radial_2008_257" cx="0" cy="0" r="1" gradientUnits="userSpaceOnUse" gradientTransform="translate(39.8693 20.2359) rotate(124.701) scale(3.90856 3.93264)">
<stop offset="0.182479" stop-color="#F6E8D9"/>
<stop offset="0.607105" stop-color="#E2CFC1"/>
</radialGradient>
<radialGradient id="paint4_radial_2008_257" cx="0" cy="0" r="1" gradientUnits="userSpaceOnUse" gradientTransform="translate(25.9374 16.3125) rotate(124.701) scale(3.90856 3.93264)">
<stop offset="0.182479" stop-color="#F6E8D9"/>
<stop offset="0.607105" stop-color="#E2CFC1"/>
</radialGradient>
<radialGradient id="paint5_radial_2008_257" cx="0" cy="0" r="1" gradientUnits="userSpaceOnUse" gradientTransform="translate(34.9173 16.3125) rotate(124.701) scale(3.90857 3.93264)">
<stop offset="0.182479" stop-color="#F6E8D9"/>
<stop offset="0.607105" stop-color="#E2CFC1"/>
</radialGradient>
<linearGradient id="paint6_linear_2008_257" x1="8.54274" y1="35.5559" x2="50.7075" y2="35.5559" gradientUnits="userSpaceOnUse">
<stop stop-color="#DD7476"/>
<stop offset="0.0845882" stop-color="#E2565F"/>
<stop offset="0.2431" stop-color="#DE445C"/>
<stop offset="0.508196" stop-color="#D62650"/>
<stop offset="0.784225" stop-color="#EB4A80"/>
<stop offset="0.940004" stop-color="#DB4379"/>
<stop offset="1" stop-color="#D45E85"/>
</linearGradient>
<linearGradient id="paint7_linear_2008_257" x1="29.6251" y1="36.1367" x2="29.6251" y2="34.4374" gradientUnits="userSpaceOnUse">
<stop offset="0.466666" stop-color="#E72D62"/>
<stop offset="0.846154" stop-color="#E72E64" stop-opacity="0"/>
</linearGradient>
<linearGradient id="paint8_linear_2008_257" x1="29.625" y1="37.1361" x2="29.625" y2="45.5642" gradientUnits="userSpaceOnUse">
<stop stop-color="#946B52"/>
<stop offset="0.311531" stop-color="#A77A6F"/>
<stop offset="0.660996" stop-color="#98655D"/>
<stop offset="1" stop-color="#86536D"/>
</linearGradient>
<radialGradient id="paint9_radial_2008_257" cx="0" cy="0" r="1" gradientUnits="userSpaceOnUse" gradientTransform="translate(20.4063 36.4766) rotate(84.1916) scale(10.2479 34.437)">
<stop stop-color="#6B544C"/>
<stop offset="1" stop-color="#6B544C" stop-opacity="0"/>
</radialGradient>
<radialGradient id="paint10_radial_2008_257" cx="0" cy="0" r="1" gradientUnits="userSpaceOnUse" gradientTransform="translate(29.625 44.1797) rotate(90) scale(6.79687 21.7126)">
<stop stop-color="#803E4C"/>
<stop offset="1" stop-color="#824456" stop-opacity="0"/>
</radialGradient>
<linearGradient id="paint11_linear_2008_257" x1="4.27344" y1="30.1612" x2="54.8613" y2="30.1612" gradientUnits="userSpaceOnUse">
<stop stop-color="#437151"/>
<stop offset="0.507973" stop-color="#619F49"/>
<stop offset="1" stop-color="#79B142"/>
</linearGradient>
<linearGradient id="paint12_linear_2008_257" x1="4.27355" y1="29.7344" x2="54.8614" y2="29.7344" gradientUnits="userSpaceOnUse">
<stop stop-color="#437151"/>
<stop offset="0.507973" stop-color="#619F49"/>
<stop offset="1" stop-color="#79B142"/>
</linearGradient>
<radialGradient id="paint13_radial_2008_257" cx="0" cy="0" r="1" gradientUnits="userSpaceOnUse" gradientTransform="translate(5.19542 30.9824) rotate(81.7316) scale(3.20519 9.02333)">
<stop stop-color="#6C9B83"/>
<stop offset="1" stop-color="#6D9B85" stop-opacity="0"/>
</radialGradient>
<linearGradient id="paint14_linear_2008_257" x1="29.6436" y1="45.5642" x2="29.6436" y2="53.8288" gradientUnits="userSpaceOnUse">
<stop stop-color="#E18F63"/>
<stop offset="0.380746" stop-color="#E89C6E"/>
<stop offset="0.572642" stop-color="#EA9D75"/>
<stop offset="1" stop-color="#E0819D"/>
</linearGradient>
<radialGradient id="paint15_radial_2008_257" cx="0" cy="0" r="1" gradientUnits="userSpaceOnUse" gradientTransform="translate(51.4044 48.371) rotate(90) scale(6.57031 37.7334)">
<stop stop-color="#FFD5AE"/>
<stop offset="1" stop-color="#FFC8A0" stop-opacity="0"/>
</radialGradient>
<linearGradient id="paint16_linear_2008_257" x1="29.6251" y1="33.871" x2="29.6251" y2="40.9278" gradientUnits="userSpaceOnUse">
<stop stop-color="#C7850F"/>
<stop offset="0.488297" stop-color="#F0CD2D"/>
<stop offset="1" stop-color="#F7C747"/>
</linearGradient>
<linearGradient id="paint17_linear_2008_257" x1="35.8477" y1="38.4023" x2="36.089" y2="34.8095" gradientUnits="userSpaceOnUse">
<stop stop-color="#FFE07A" stop-opacity="0"/>
<stop offset="0.217647" stop-color="#FFE68F"/>
<stop offset="1" stop-color="#FFDB5C"/>
</linearGradient>
<linearGradient id="paint18_linear_2008_257" x1="23.1143" y1="38.4023" x2="22.8729" y2="34.8095" gradientUnits="userSpaceOnUse">
<stop stop-color="#FFE07A" stop-opacity="0"/>
<stop offset="0.217647" stop-color="#FFE68F"/>
<stop offset="1" stop-color="#FFDB5C"/>
</linearGradient>
<radialGradient id="paint19_radial_2008_257" cx="0" cy="0" r="1" gradientUnits="userSpaceOnUse" gradientTransform="translate(40.1113 27.8672) rotate(15.4417) scale(14.4655 6.88245)">
<stop offset="0.226614" stop-color="#87BE66"/>
<stop offset="1" stop-color="#92C771" stop-opacity="0"/>
</radialGradient>
<linearGradient id="paint20_linear_2008_257" x1="6.69336" y1="31.4356" x2="21.6053" y2="29.21" gradientUnits="userSpaceOnUse">
<stop stop-color="#66987E"/>
<stop offset="0.457848" stop-color="#66987E" stop-opacity="0.542152"/>
<stop offset="1" stop-color="#66987E" stop-opacity="0"/>
</linearGradient>
</defs>
</svg>
