<svg width="296" height="172" viewBox="0 0 296 172" fill="none" xmlns="http://www.w3.org/2000/svg">
<g clip-path="url(#clip0_0_401)">
<rect width="296" height="172" rx="16" fill="#B693FA"/>
<circle opacity="0.2" cx="272" cy="166" r="114" fill="white"/>
<circle opacity="0.2" cx="271.998" cy="166" r="69.92" fill="white"/>
<g filter="url(#filter0_f_0_401)">
<rect width="186.258" height="136.445" rx="68.2225" transform="matrix(1 0 0 -1 205 288.597)" fill="#B7FBFF" fill-opacity="0.86"/>
<rect x="0.360966" y="-0.360966" width="185.536" height="135.723" rx="67.8616" transform="matrix(1 0 0 -1 205 287.875)" stroke="black" stroke-width="0.721932"/>
</g>
<path d="M36.6661 65.9753C32.997 65.9753 29.7459 65.3251 26.9129 64.0247C24.0798 62.7242 21.8505 60.82 20.2249 58.3121C18.6458 55.7577 17.8563 52.6691 17.8563 49.0465V47.3049H25.3106V49.0465C25.3106 52.4834 26.3323 55.061 28.3758 56.7794C30.4658 58.4979 33.2292 59.3571 36.6661 59.3571C40.1494 59.3571 42.7735 58.6372 44.5383 57.1974C46.3032 55.7112 47.1856 53.807 47.1856 51.4848C47.1856 49.9522 46.7676 48.6982 45.9317 47.7229C45.0957 46.7475 43.9113 45.9812 42.3787 45.4239C40.846 44.8201 39.0115 44.2628 36.8751 43.7519L34.2974 43.1249C31.1857 42.3818 28.4687 41.4762 26.1465 40.4079C23.8708 39.2933 22.1059 37.8303 20.8519 36.019C19.5979 34.2077 18.971 31.8855 18.971 29.0524C18.971 26.1729 19.6676 23.7114 21.0609 21.6678C22.5007 19.6243 24.4746 18.0452 26.9825 16.9305C29.4905 15.8159 32.4397 15.2586 35.8301 15.2586C39.2205 15.2586 42.2394 15.8391 44.8867 17.0002C47.5804 18.1613 49.6936 19.8797 51.2263 22.1555C52.7589 24.4312 53.5252 27.2875 53.5252 30.7244V33.2324H46.071V30.7244C46.071 28.6344 45.6298 26.9392 44.7473 25.6388C43.9113 24.3383 42.727 23.3862 41.1944 22.7825C39.6617 22.1787 37.8736 21.8768 35.8301 21.8768C32.8577 21.8768 30.5355 22.5038 28.8635 23.7578C27.238 24.9653 26.4252 26.6605 26.4252 28.8434C26.4252 30.3296 26.7735 31.5604 27.4702 32.5357C28.2133 33.4646 29.2815 34.2309 30.6748 34.8347C32.0681 35.4384 33.8098 35.9725 35.8998 36.437L38.4774 37.064C41.6356 37.7606 44.4222 38.6663 46.8373 39.781C49.2524 40.8492 51.1566 42.3121 52.5499 44.1699C53.9432 46.0277 54.6399 48.4195 54.6399 51.3455C54.6399 54.2715 53.8968 56.8259 52.4106 59.0087C50.9708 61.1916 48.9041 62.91 46.2103 64.164C43.5166 65.3716 40.3352 65.9753 36.6661 65.9753ZM66.9272 65L59.7516 16.2339H67.2755L73.1275 59.9144H74.2421L81.766 16.2339H94.9329L102.457 59.9144H103.571L109.354 16.2339H116.878L109.702 65H96.5352L88.872 20.6925H87.7573L80.1637 65H66.9272ZM124.312 65V16.2339H155.035V23.0611H131.836V37.064H153.084V43.8912H131.836V58.1727H155.383V65H124.312ZM163.227 65V16.2339H177.718L190.954 59.9841H192.069V16.2339H199.523V65H185.033L171.796 21.1802H170.681V65H163.227Z" fill="url(#paint0_linear_0_401)"/>
<path d="M39.1812 132.937V117.928H24.3575V109.219H39.1812V94.2095H48.2608V109.219H63.0845V117.928H48.2608V132.937H39.1812ZM85.5163 147.204L79.5868 142.387L130.266 79.9417L136.195 84.7594L85.5163 147.204ZM125.633 147.019C121.062 147.019 117.449 145.753 114.793 143.221C112.137 140.626 110.809 137.137 110.809 132.751V132.195C110.809 127.748 112.137 124.258 114.793 121.726C117.449 119.132 121.062 117.835 125.633 117.835C130.142 117.835 133.755 119.132 136.473 121.726C139.191 124.258 140.549 127.748 140.549 132.195V132.751C140.549 137.137 139.191 140.626 136.473 143.221C133.817 145.753 130.204 147.019 125.633 147.019ZM125.633 140.534C127.857 140.534 129.586 139.854 130.821 138.495C132.118 137.137 132.767 135.345 132.767 133.122V131.825C132.767 129.539 132.118 127.717 130.821 126.359C129.586 125 127.857 124.32 125.633 124.32C123.471 124.32 121.742 125 120.445 126.359C119.209 127.717 118.592 129.539 118.592 131.825V133.122C118.592 135.345 119.209 137.137 120.445 138.495C121.742 139.854 123.471 140.534 125.633 140.534ZM90.1487 109.311C85.5781 109.311 81.9339 108.045 79.2162 105.513C76.5603 102.918 75.2323 99.4287 75.2323 95.0434V94.3948C75.2323 89.9477 76.5603 86.4579 79.2162 83.9255C81.9339 81.3932 85.5781 80.127 90.1487 80.127C94.6576 80.127 98.24 81.3932 100.896 83.9255C103.614 86.4579 104.972 89.9477 104.972 94.3948V95.0434C104.972 99.4287 103.645 102.918 100.989 105.513C98.3327 108.045 94.7194 109.311 90.1487 109.311ZM90.1487 102.826C92.3105 102.826 94.0091 102.146 95.2444 100.788C96.5415 99.3669 97.19 97.5449 97.19 95.3213V94.0242C97.19 91.8007 96.5415 90.0095 95.2444 88.6506C94.0091 87.2918 92.3105 86.6123 90.1487 86.6123C87.9252 86.6123 86.1649 87.2918 84.8678 88.6506C83.6325 90.0095 83.0148 91.8007 83.0148 94.0242V95.3213C83.0148 97.5449 83.6325 99.3669 84.8678 100.788C86.1649 102.146 87.9252 102.826 90.1487 102.826Z" fill="url(#paint1_linear_0_401)"/>
<ellipse cx="259.849" cy="88.0301" rx="14.8774" ry="14.4959" transform="rotate(-21.3232 259.849 88.0301)" fill="url(#paint2_radial_0_401)"/>
<circle cx="285.94" cy="95.0455" r="7.62943" transform="rotate(-21.3232 285.94 95.0455)" fill="url(#paint3_radial_0_401)"/>
<rect x="255.703" y="118.315" width="44.2507" height="76.2943" rx="9.54191" transform="rotate(-21.3232 255.703 118.315)" fill="#D8F0F6"/>
<rect x="198.082" y="96.5805" width="43.4878" height="69.4278" rx="9.54191" transform="rotate(-21.3232 198.082 96.5805)" fill="#DAC8F9"/>
<path d="M271.481 165.035L264.666 147.575L247.296 154.356C243.325 155.906 239.61 158.043 236.274 160.695L235.706 161.147C231.508 164.485 228.749 169.306 227.997 174.618C227.382 178.963 228.147 183.391 230.183 187.279L230.573 188.025C231.427 189.656 232.47 191.182 233.679 192.571L233.786 192.694C238.859 198.519 246.366 201.632 254.072 201.106L255.204 201.029C258.936 200.774 262.528 199.508 265.594 197.365C271.358 193.337 274.668 186.646 274.37 179.62L274.325 178.562C274.129 173.927 273.168 169.357 271.481 165.035Z" fill="#F5CFC8"/>
</g>
<defs>
<filter id="filter0_f_0_401" x="161.684" y="108.836" width="272.89" height="223.077" filterUnits="userSpaceOnUse" color-interpolation-filters="sRGB">
<feFlood flood-opacity="0" result="BackgroundImageFix"/>
<feBlend mode="normal" in="SourceGraphic" in2="BackgroundImageFix" result="shape"/>
<feGaussianBlur stdDeviation="21.658" result="effect1_foregroundBlur_0_401"/>
</filter>
<linearGradient id="paint0_linear_0_401" x1="110" y1="11" x2="110" y2="72" gradientUnits="userSpaceOnUse">
<stop stop-color="white"/>
<stop offset="1" stop-color="white" stop-opacity="0"/>
</linearGradient>
<linearGradient id="paint1_linear_0_401" x1="79.5" y1="74" x2="79.5" y2="155" gradientUnits="userSpaceOnUse">
<stop stop-color="white"/>
<stop offset="1" stop-color="white" stop-opacity="0"/>
</linearGradient>
<radialGradient id="paint2_radial_0_401" cx="0" cy="0" r="1" gradientUnits="userSpaceOnUse" gradientTransform="translate(259.849 88.0301) rotate(90) scale(14.4959 14.8774)">
<stop stop-color="#E3F2DF"/>
<stop offset="1" stop-color="#DAFDD1"/>
</radialGradient>
<radialGradient id="paint3_radial_0_401" cx="0" cy="0" r="1" gradientUnits="userSpaceOnUse" gradientTransform="translate(285.94 95.0455) rotate(90) scale(7.62943)">
<stop stop-color="#E3F2DF"/>
<stop offset="1" stop-color="#DAFDD1"/>
</radialGradient>
<clipPath id="clip0_0_401">
<rect width="296" height="172" rx="16" fill="white"/>
</clipPath>
</defs>
</svg>
